Coordinates
version=1
nRows=16
nColumns=36
inDegrees=yes

Units are S.I. units (second, meters, Newtons, ...)
If the header above contains a line with 'inDegrees', this indicates whether rotational values are in degrees (yes) or radians (no).

endheader
time	pelvis_tilt	pelvis_list	pelvis_rotation	pelvis_tx	pelvis_ty	pelvis_tz	hip_flexion_r	hip_adduction_r	hip_rotation_r	knee_angle_r	knee_angle_r_beta	ankle_angle_r	subtalar_angle_r	mtp_angle_r	hip_flexion_l	hip_adduction_l	hip_rotation_l	knee_angle_l	knee_angle_l_beta	ankle_angle_l	subtalar_angle_l	mtp_angle_l	lumbar_extension	lumbar_bending	lumbar_rotation	arm_flex_r	arm_add_r	arm_rot_r	elbow_flex_r	pro_sup_r	arm_flex_l	arm_add_l	arm_rot_l	elbow_flex_l	pro_sup_l
      0.32000000	     -4.11199865	     -2.65270041	      3.77543592	      0.25079064	      0.95025385	     -0.19852518	     11.39623115	      7.13755613	     -2.25570171	     11.10276846	      0.19377987	      3.94182850	    -10.86670850	     -6.37899118	     30.17524818	      1.66641795	      7.40272790	     62.21476988	      1.08585258	     -5.98627203	    -23.05215792	     -6.37899118	     -7.42083259	      0.84234005	     -3.82652888	      6.29819692	    -12.73177168	      7.82459728	     50.26394839	    106.86943791	     -7.25583673	     -6.85430037	     -5.65478887	     31.53572363	    102.09585745
      0.33000000	     -4.06385393	     -2.36448075	      3.12989476	      0.26295917	      0.95162985	     -0.19722629	      9.96639426	      7.02730466	     -2.00177996	     10.11691074	      0.17657340	      4.57539145	     -9.72449953	     -6.40477694	     30.76738613	      1.88876291	      7.03650899	     59.21248329	      1.03345279	     -5.74597271	    -22.79503217	     -6.40477694	     -7.54446388	      0.40829020	     -3.02640142	      7.45433057	    -13.14998666	      8.10080143	     52.02659838	    106.97315955	     -8.27060109	     -7.14666661	     -4.95618735	     31.23422012	    102.19732578
      0.34000000	     -4.02577770	     -2.11756577	      2.48985339	      0.27517875	      0.95267621	     -0.19594109	      8.57693492	      6.93265852	     -1.78711178	      9.17672633	      0.16016409	      5.21288230	     -8.60946044	     -6.42868594	     31.22380528	      2.02343979	      6.70196880	     55.88992771	      0.97546326	     -5.58511623	    -22.56307243	     -6.42868594	     -7.63438856	      0.01378857	     -2.22623610	      8.58459701	    -13.58100060	      8.38626735	     53.71696684	    107.05866724	     -9.31327393	     -7.41736911	     -4.30844385	     31.02046319	    102.27732301
      0.35000000	     -4.26730979	     -1.94413837	      1.92173998	      0.28737455	      0.95297291	     -0.19472531	      7.51132063	      6.88619362	     -1.47694966	      8.24983686	      0.14398682	      5.55060695	     -7.90536808	     -6.43786959	     31.88095255	      2.11613523	      6.52564478	     52.31922750	      0.91314278	     -5.41152924	    -22.31027445	     -6.43786959	     -7.33008492	     -0.29478272	     -1.62433615	      9.75605610	    -13.89193180	      8.60182581	     55.21783263	    107.15245763	    -10.45423369	     -7.59715694	     -4.03879468	     30.80974896	    102.29860736
      0.36000000	     -3.99306554	     -1.74940263	      1.30418245	      0.29976412	      0.95369215	     -0.19350767	      5.86398506	      6.79535602	     -1.32787131	      7.32170776	      0.12778791	      6.36316689	     -6.67611023	     -6.45705468	     31.76073375	      2.05800490	      6.06862773	     48.33878892	      0.84367102	     -5.36185498	    -22.10189074	     -6.45705468	     -7.68268753	     -0.61311833	     -0.76597882	     10.84406330	    -14.49738270	      9.07817552	     56.98946573	    107.24704691	    -11.45904018	     -7.84299710	     -3.43939648	     30.92221807	    102.37432441
      0.37000000	     -4.24374123	     -1.73193498	      0.81187943	      0.31201731	      0.95329104	     -0.19247019	      4.85988843	      6.86141812	     -1.04249457	      6.50495744	      0.11353293	      6.79648145	     -5.89251433	     -6.46617633	     32.15962642	      1.94551269	      6.00425591	     44.24640713	      0.77224549	     -5.22904096	    -21.79572357	     -6.46617633	     -7.34452428	     -0.71417205	     -0.19921612	     11.96420570	    -14.88380601	      9.32074880	     58.46922539	    107.33232158	    -12.57282597	     -7.97136019	     -3.20650721	     30.83838131	    102.38652193
      0.38000000	     -4.07523861	     -1.67311773	      0.30046830	      0.32456954	      0.95318966	     -0.19146851	      3.34167637	      6.85369879	     -0.94591528	      5.61671230	      0.09803012	      7.56080829	     -4.81108846	     -6.48032468	     31.91613933	      1.72536252	      5.55930501	     39.83316146	      0.69521982	     -5.26720703	    -21.40844866	     -6.48032468	     -7.49545055	     -0.87337709	      0.50867030	     12.98933280	    -15.47277167	      9.76994724	     60.14394918	    107.42303676	    -13.60780920	     -8.13515600	     -2.91105464	     31.00328790	    102.40323464
      0.39000000	     -3.98862513	     -1.75635344	     -0.12059505	      0.33714843	      0.95259025	     -0.19065280	      1.96215248	      6.97578866	     -0.90923585	      4.83034746	      0.08430547	      8.35186826	     -3.64727989	     -6.49666694	     31.70839936	      1.40697175	      5.21466944	     35.35321221	      0.61702995	     -5.34223328	    -20.87934104	     -6.49666694	     -7.53709219	     -0.84409463	      1.09194886	     14.02016724	    -16.01369346	     10.12286513	     61.76852079	    107.48618989	    -14.66034786	     -8.22282089	     -2.74458265	     31.15670276	    102.37598136
      0.40000000	     -3.97083247	     -1.94839678	     -0.50665416	      0.34975240	      0.95152679	     -0.18995722	      0.68288157	      7.19496915	     -0.86511200	      4.11818997	      0.07187597	      9.10808960	     -2.57628607	     -6.51335539	     31.54300966	      0.98941352	      4.85233928	     30.86960437	      0.53877624	     -5.40657928	    -20.06436920	     -6.51335539	     -7.49116580	     -0.66772965	      1.59761738	     15.04122644	    -16.53139777	     10.41861180	     63.33147721	    107.53560589	    -15.70718307	     -8.23972327	     -2.75826026	     31.29258364	    102.30281273
      0.41000000	     -4.06114144	     -2.22979430	     -0.85520860	      0.36239303	      0.94997096	     -0.18937079	     -0.46649961	      7.50351575	     -0.68032567	      3.45845071	      0.06036135	      9.73816758	     -1.75529854	     -6.52563803	     31.47945157	      0.50849873	      4.51970042	     26.45573894	      0.46173975	     -5.43955835	    -18.90667479	     -6.52563803	     -7.29229367	     -0.37766728	      2.04198099	     16.02717991	    -17.02056923	     10.68891730	     64.81655536	    107.59679482	    -16.73030568	     -8.19127486	     -2.88755615	     31.38348310	    102.21949597
      0.42000000	     -3.84168853	     -2.49663916	     -1.15783848	      0.37531734	      0.94850466	     -0.18892044	     -1.92565225	      7.75467096	     -0.90260155	      2.88478535	      0.05034900	     10.84799491	     -0.08365248	     -6.56925111	     31.07123473	     -0.00498154	      3.75800997	     22.21206771	      0.38767372	     -4.84353888	    -16.65137836	     -6.56925111	     -7.48559661	     -0.11507547	      2.39534012	     16.99797215	    -17.49295044	     10.95366781	     66.41277444	    107.44299765	    -17.80822881	     -8.00874599	     -3.55740194	     31.81612079	    101.84426051
      0.43000000	     -3.68441596	     -2.80726897	     -1.43494557	      0.38817148	      0.94666725	     -0.18845430	     -3.28095899	      8.07134797	     -0.81888946	      2.41535163	      0.04215584	     11.51167184	      0.54494196	     -6.59645081	     30.78510106	     -0.51231071	      2.95201522	     18.22997519	      0.31817309	     -4.47554709	    -14.37925645	     -6.59645081	     -7.61416628	      0.21071401	      2.70534644	     17.97721116	    -17.92664877	     11.26422951	     67.93262356	    107.39170362	    -18.69722533	     -7.90872555	     -4.01574552	     31.94050588	    101.59266288
      0.44000000	     -3.55450874	     -3.08633404	     -1.74600648	      0.40130111	      0.94453145	     -0.18820736	     -4.56508070	      8.32003897	     -0.74038288	      2.06796464	      0.03609279	     12.23203332	      1.27374887	     -6.62855657	     30.54818505	     -0.95436661	      2.14452557	     14.62788275	      0.25530472	     -3.61623879	    -11.21311738	     -6.62855657	     -7.62985123	      0.54412200	      3.03039454	     18.84680685	    -18.35149563	     11.46809037	     69.34643063	    107.32706114	    -19.67434561	     -7.60435528	     -4.66690050	     32.12426467	    101.29890910
      0.45000000	     -3.52766232	     -3.40850624	     -1.96292117	      0.41436290	      0.94202825	     -0.18784201	     -5.64667032	      8.63485217	     -0.63703410	      1.91365772	      0.03339963	     12.99502863	      1.96038045	     -6.67882152	     30.57534983	     -1.42659841	      1.11446605	     11.55210942	      0.20162234	     -2.27686759	     -7.32017464	     -6.67882152	     -7.54849970	      0.84021933	      3.26030543	     19.64627002	    -18.69816749	     11.65497071	     70.54513013	    107.21086226	    -20.52612143	     -7.42439666	     -5.55138421	     32.34806441	    100.92211871
      0.46000000	     -3.45768493	     -3.62563845	     -2.14922579	      0.42739283	      0.93949673	     -0.18775916	     -6.68449716	      8.82112074	     -0.44854687	      1.92162980	      0.03353877	     13.59851105	      2.02947292	     -6.69209463	     30.41942157	     -1.63560308	      0.86039575	      8.55138186	      0.14924977	     -2.06595508	     -5.24519841	     -6.69209463	     -7.51710306	      1.08001521	      3.48657290	     20.38391421	    -19.05472052	     11.81807783	     71.72874275	    107.19646652	    -21.16559780	     -7.30186782	     -5.84076427	     32.22826104	    100.76564647
      0.47000000	     -3.16062559	     -3.71950178	     -2.39521930	      0.44056610	      0.93717532	     -0.18758245	     -7.87528873	      8.83183890	     -0.30089338	      2.11233361	      0.03686718	     14.36263821	      2.53492420	     -6.73671471	     30.19974226	     -1.85193726	     -0.40485240	      6.38783230	      0.11148871	     -0.45461701	     -0.87506876	     -6.73671471	     -7.79862132	      1.13139116	      3.73453699	     21.05095021	    -19.27411378	     11.75424691	     72.97579473	    107.09667790	    -21.80494027	     -7.04916414	     -6.82400362	     32.38625485	    100.38690199
